<svg width="34" height="31" viewBox="0 0 34 31" fill="none" xmlns="http://www.w3.org/2000/svg">
<path d="M17.0002 10.3335C17.001 10.0669 16.9485 9.80277 16.8457 9.55673C16.7429 9.31069 16.592 9.08768 16.4017 8.90083C16.2115 8.71397 15.9858 8.56704 15.738 8.46868C15.4901 8.37032 15.2251 8.32251 14.9585 8.32807C14.692 8.33363 14.4292 8.39244 14.1856 8.50104C13.9421 8.60964 13.7228 8.76585 13.5405 8.96047C13.3582 9.15508 13.2167 9.38419 13.1242 9.6343C13.0318 9.88441 12.9903 10.1505 13.0022 10.4169C12.6103 10.5176 12.2465 10.7062 11.9384 10.9684C11.6302 11.2306 11.3857 11.5594 11.2234 11.9301C11.0612 12.3007 10.9854 12.7035 11.0018 13.1077C11.0182 13.512 11.1264 13.9073 11.3182 14.2635C10.981 14.5375 10.7158 14.8897 10.5458 15.2895C10.3757 15.6893 10.3059 16.1246 10.3425 16.5575C10.379 16.9905 10.5208 17.4079 10.7554 17.7735C10.9901 18.1392 11.3105 18.442 11.6889 18.6555C11.6422 19.017 11.67 19.3843 11.7708 19.7345C11.8716 20.0848 12.0431 20.4108 12.2747 20.6922C12.5064 20.9736 12.7933 21.2045 13.1177 21.3707C13.4421 21.5369 13.7971 21.6348 14.1609 21.6584C14.5246 21.682 14.8893 21.6308 15.2325 21.5079C15.5756 21.3851 15.89 21.1931 16.1561 20.944C16.4221 20.6949 16.6343 20.3939 16.7795 20.0596C16.9247 19.7252 16.9998 19.3647 17.0002 19.0002V10.3335Z" stroke="white" stroke-width="1.33333" stroke-linecap="round" stroke-linejoin="round"/>
<path d="M15 15.6667C15.5597 15.4698 16.0485 15.1113 16.4044 14.6367C16.7604 14.162 16.9677 13.5924 17 13" stroke="white" stroke-width="1.33333" stroke-linecap="round" stroke-linejoin="round"/>
<path d="M13.002 10.4165C13.0151 10.739 13.1062 11.0535 13.2673 11.3332" stroke="white" stroke-width="1.33333" stroke-linecap="round" stroke-linejoin="round"/>
<path d="M11.3184 14.264C11.4403 14.1647 11.5708 14.0763 11.7084 14" stroke="white" stroke-width="1.33333" stroke-linecap="round" stroke-linejoin="round"/>
<path d="M12.9998 18.9998C12.5404 19 12.0887 18.8815 11.6885 18.6558" stroke="white" stroke-width="1.33333" stroke-linecap="round" stroke-linejoin="round"/>
<path d="M17 15.6665H19.6667" stroke="white" stroke-width="1.33333" stroke-linecap="round" stroke-linejoin="round"/>
<path d="M17 19H21C21.3536 19 21.6928 19.1405 21.9428 19.3905C22.1929 19.6406 22.3333 19.9797 22.3333 20.3333V21" stroke="white" stroke-width="1.33333" stroke-linecap="round" stroke-linejoin="round"/>
<path d="M17 12.3335H22.3333" stroke="white" stroke-width="1.33333" stroke-linecap="round" stroke-linejoin="round"/>
<path d="M19.667 12.3333V10.3333C19.667 9.97971 19.8075 9.64057 20.0575 9.39052C20.3076 9.14048 20.6467 9 21.0003 9" stroke="white" stroke-width="1.33333" stroke-linecap="round" stroke-linejoin="round"/>
<path d="M19.6663 16.0002C19.8504 16.0002 19.9997 15.8509 19.9997 15.6668C19.9997 15.4827 19.8504 15.3335 19.6663 15.3335C19.4822 15.3335 19.333 15.4827 19.333 15.6668C19.333 15.8509 19.4822 16.0002 19.6663 16.0002Z" stroke="white" stroke-width="1.33333" stroke-linecap="round" stroke-linejoin="round"/>
<path d="M21.0003 9.33317C21.1844 9.33317 21.3337 9.18393 21.3337 8.99984C21.3337 8.81574 21.1844 8.6665 21.0003 8.6665C20.8162 8.6665 20.667 8.81574 20.667 8.99984C20.667 9.18393 20.8162 9.33317 21.0003 9.33317Z" stroke="white" stroke-width="1.33333" stroke-linecap="round" stroke-linejoin="round"/>
<path d="M22.3333 21.3332C22.5174 21.3332 22.6667 21.1839 22.6667 20.9998C22.6667 20.8157 22.5174 20.6665 22.3333 20.6665C22.1492 20.6665 22 20.8157 22 20.9998C22 21.1839 22.1492 21.3332 22.3333 21.3332Z" stroke="white" stroke-width="1.33333" stroke-linecap="round" stroke-linejoin="round"/>
<path d="M22.3333 12.6667C22.5174 12.6667 22.6667 12.5174 22.6667 12.3333C22.6667 12.1492 22.5174 12 22.3333 12C22.1492 12 22 12.1492 22 12.3333C22 12.5174 22.1492 12.6667 22.3333 12.6667Z" stroke="white" stroke-width="1.33333" stroke-linecap="round" stroke-linejoin="round"/>
</svg>
